<svg width="24" height="24" fill="none" xmlns="http://www.w3.org/2000/svg"><path d="M7.713 6.526 6.24 5.055 5.086 6.214l1.465 1.47 1.162-1.158zm-2.258 4.652H3v1.644h2.455v-1.644zM12.818 3h-1.636v2.425h1.636V3zm6.096 3.214-1.154-1.16-1.465 1.472 1.154 1.159 1.465-1.471zm-2.627 11.26 1.465 1.48 1.154-1.16-1.473-1.47-1.146 1.15zm2.259-6.296v1.644H21v-1.644h-2.454zM12 7.068C9.292 7.068 7.09 9.28 7.09 12c0 2.72 2.202 4.931 4.91 4.931s4.91-2.21 4.91-4.931c0-2.72-2.202-4.932-4.91-4.932zM11.182 21h1.636v-2.425h-1.636V21zm-6.096-3.214 1.154 1.16 1.465-1.48-1.154-1.16-1.465 1.48z" fill="#FFB843"/></svg>