<svg width="24" height="24" viewBox="0 0 24 24" fill="none" xmlns="http://www.w3.org/2000/svg">
<path fill-rule="evenodd" clip-rule="evenodd" d="M19.4322 9.97108C18.5811 9.13653 17.4616 8.65889 16.2903 8.6306C15.8293 7.46825 15.0261 6.48632 13.9953 5.82463C13.125 5.29291 12.0972 5 11.1603 5C9.1497 5 7.275 6.17351 6.2625 8.05224C5.8278 8.84515 5.5803 9.74907 5.5272 10.8032C4.0422 11.4058 3 12.9757 3 14.7276C3 17.0821 4.7775 19 6.96 19H16.2003C18.8922 19 21 16.7248 21 13.8228C21 12.3489 20.4303 10.9384 19.4322 9.97108ZM16.2003 17.7239H6.96C5.4453 17.7239 4.2078 16.3759 4.2078 14.7201C4.2078 13.403 5.0925 12.1828 6.2625 11.8815L6.7278 11.7621V11.2705C6.7278 10.2481 6.9222 9.40019 7.32 8.67817C8.1147 7.18843 9.5853 6.26866 11.1603 6.26866C11.8803 6.26866 12.7047 6.50653 13.3797 6.91045C14.2653 7.47388 14.9997 8.44869 15.285 9.44776L15.42 9.93097L15.9078 9.89925C16.3996 9.85983 16.894 9.92761 17.359 10.0982C17.824 10.2689 18.2494 10.5385 18.6078 10.8899C19.3647 11.6269 19.7922 12.6903 19.7922 13.8153C19.785 16.0121 18.21 17.7239 16.2003 17.7239Z" fill="white"/>
</svg>
