<svg width="24" height="24" fill="none" xmlns="http://www.w3.org/2000/svg"><path d="m10.446 6.014-.803-.817L9 5.85l.804.817.642-.653zM13.34 4h-.964v1.415h.964V4zm3.268 4.735v.98H18v-.98h-1.393zM12.911 6.34c-1.554 0-2.786 1.306-2.786 2.83 0 1.578 1.286 2.83 2.786 2.83 1.553 0 2.785-1.306 2.785-2.83s-1.285-2.83-2.785-2.83z" fill="#FFB843"/><path d="M13.275 12.037h-.057c-.736-1.67-2.38-2.784-4.306-2.784-2.55 0-4.702 2.116-4.702 4.622v.167c-1.247.39-2.21 1.56-2.21 2.896C2 18.663 3.36 20 5.116 20h8.159c2.266 0 4.079-1.782 4.079-4.01 0-2.226-1.813-3.953-4.08-3.953zM19.904 5.448C19.507 4.557 18.657 4 17.637 4c-1.303 0-2.436 1.058-2.436 2.394v.112a1.574 1.574 0 0 0-1.133 1.503c0 .891.737 1.615 1.643 1.615h4.193c1.19 0 2.096-.947 2.096-2.06 0-1.114-.907-2.116-2.096-2.116z" fill="#fff"/></svg>