<svg width="24" height="24" fill="none" xmlns="http://www.w3.org/2000/svg"><path d="m13.15 6.325-.975-.975-.75.75.975.975.75-.75zm-1.5 3.15H10V10.6h1.65V9.475zM16.525 4H15.4v1.65h1.125V4zm4.05 2.175-.75-.75-.975.975.75.75.975-.975zm-1.725 7.5.975.975.75-.75-.975-.975-.75.75zm1.5-4.2V10.6H22V9.475h-1.65zM16 6.7c-1.8 0-3.3 1.5-3.3 3.3 0 1.8 1.5 3.3 3.3 3.3 1.8 0 3.3-1.5 3.3-3.3 0-1.8-1.5-3.3-3.3-3.3zm-.525 9.3H16.6v-1.65h-1.125V16zm-4.05-2.175.75.75.975-.975-.75-.75-.975.975z" fill="#FFB843"/><path d="M15.225 10.91h-.074c-.882-1.887-2.792-3.145-5.07-3.145-3.012 0-5.51 2.377-5.51 5.243v.21C3.102 13.638 2 14.966 2 16.504 2 18.462 3.616 20 5.673 20h9.552C17.869 20 20 17.972 20 15.456c0-2.518-2.13-4.545-4.775-4.545z" fill="#fff"/></svg>