<svg width="24" height="24" fill="none" xmlns="http://www.w3.org/2000/svg"><path d="M12.093 8.425c.528-2.668 2.774-4.493 5.218-4.423a5.47 5.47 0 0 0-1.123 2.247c-.463 2.457 1.056 4.915 3.368 5.406.859.21 1.717.07 2.444-.21-.859 2.457-3.369 4.001-5.878 3.44-2.774-.632-4.558-3.51-4.03-6.46z" fill="#538BAE"/><path d="M15.192 10.632h-.062a5.488 5.488 0 0 0-5.055-3.264c-3.02 0-5.486 2.418-5.486 5.38v.241C3.109 13.412 2 14.802 2 16.374 2 18.368 3.603 20 5.699 20h9.554C17.904 20 20 17.885 20 15.346c0-2.538-2.157-4.714-4.808-4.714z" fill="#fff"/></svg>