<svg width="24" height="24" fill="none" xmlns="http://www.w3.org/2000/svg"><path d="M16.192 6.121h-.062C15.267 4.271 13.356 3 11.075 3 8.055 3 5.59 5.312 5.59 8.144v.231C4.109 8.78 3 10.11 3 11.612c0 1.907 1.603 3.468 3.699 3.468h9.554c2.651 0 4.747-2.023 4.747-4.45 0-2.428-2.157-4.509-4.808-4.509zM16.623 16.294H15.39v4.681h1.233v-4.681z" fill="#fff"/><path d="m17.846 16.996-4.325 2.34.617 1.001 4.324-2.34-.616-1.001z" fill="#fff"/><path d="m14.142 16.949-.616 1 4.324 2.342.616-1.001-4.324-2.341z" fill="#fff"/><path d="M11.798 16.3 9.33 20.435l1.076.564 2.467-4.137-1.076-.564zM8.877 16.294l-1.534 2.573 1.076.564 1.534-2.573-1.076-.564zM6.06 16.315l-.482.807 1.077.564.48-.807-1.075-.564z" fill="#2D9CDB"/></svg>