<svg width="24" height="24" fill="none" xmlns="http://www.w3.org/2000/svg"><path d="M18.535 16.27h-1.147v4.673h1.147V16.27z" fill="#fff"/><path d="m19.712 16.905-4.022 2.336.573 1 4.022-2.336-.573-1z" fill="#fff"/><path d="m16.267 16.94-.573 1 4.02 2.337.574-1-4.021-2.336zM16.36 6.1h-.06C15.469 4.263 13.625 3 11.424 3 8.508 3 6.13 5.297 6.13 8.11v.23c-1.428.402-2.498 1.722-2.498 3.215C3.63 13.45 5.177 15 7.2 15h9.22c2.558 0 4.58-2.01 4.58-4.421C21 8.167 18.918 6.1 16.36 6.1z" fill="#fff"/><path d="m8.235 16.3-2.294 4.128 1 .563 2.295-4.129-1.001-.563zM5.294 16.27 3 20.399l1 .563 2.295-4.13-1-.562zM14.144 16.308l-2.294 4.129 1 .563 2.295-4.13-1-.562zM11.204 16.278l-2.295 4.13 1 .563 2.295-4.13-1-.563z" fill="#2D9CDB"/></svg>