<svg width="24" height="24" fill="none" xmlns="http://www.w3.org/2000/svg"><path d="M16.192 6.1h-.062C15.267 4.263 13.356 3 11.075 3 8.055 3 5.59 5.297 5.59 8.11v.23C4.109 8.742 3 10.062 3 11.555 3 13.45 4.603 15 6.699 15h9.554C18.904 15 21 12.99 21 10.579 21 8.167 18.843 6.1 16.192 6.1z" fill="#fff"/><path d="M10.337 16.335 7.858 20.44l1.081.56 2.479-4.105-1.081-.56zM13.44 16.335l-2.085 3.454 1.08.56 2.086-3.454-1.08-.56zM16.303 16.134l-1.57 2.604 1.082.56 1.57-2.605-1.082-.56zM7.117 16.098 5.545 18.7l1.081.56 1.572-2.604-1.081-.56z" fill="#2D9CDB"/></svg>