<svg width="24" height="24" fill="none" xmlns="http://www.w3.org/2000/svg"><path d="M16.192 6.122h-.062C15.267 4.272 13.356 3 11.075 3 8.055 3 5.59 5.313 5.59 8.146v.23C4.109 8.783 3 10.112 3 11.616c0 1.908 1.603 3.469 3.699 3.469h9.554c2.651 0 4.747-2.024 4.747-4.452 0-2.429-2.157-4.51-4.808-4.51z" fill="#fff"/><path d="m8.542 16.298-2.468 4.138L7.15 21l2.468-4.138-1.076-.564zM5.467 16.298 3 20.436 4.076 21l2.467-4.138-1.076-.564zM17.788 16.298l-2.467 4.138 1.076.564 2.467-4.138-1.076-.564zM14.706 16.298l-2.467 4.138 1.076.564 2.467-4.138-1.076-.564zM11.624 16.298l-2.467 4.138 1.076.564 2.467-4.138-1.076-.564z" fill="#2D9CDB"/></svg>