<svg width="24" height="24" fill="none" xmlns="http://www.w3.org/2000/svg"><path d="M16.192 6.1h-.062C15.206 4.206 13.295 3 11.075 3 8.055 3 5.59 5.297 5.59 8.11v.23C4.109 8.742 3 10.062 3 11.555 3 13.45 4.603 15 6.699 15h9.554C18.904 15 21 12.99 21 10.579 21 8.167 18.843 6.1 16.192 6.1zM15.144 16.298H13.91v4.683h1.233v-4.683z" fill="#fff"/><path d="m16.409 16.94-4.325 2.342.617 1.001 4.324-2.34-.616-1.002z" fill="#fff"/><path d="m12.709 16.983-.617 1.002 4.324 2.341.617-1-4.324-2.343z" fill="#fff"/><path d="m10.342 16.298-2.467 4.138L8.951 21l2.467-4.138-1.076-.564zM7.48 16.32l-.842 1.414 1.076.564.842-1.413-1.076-.565z" fill="#2D9CDB"/></svg>