<svg width="24" height="24" fill="none" xmlns="http://www.w3.org/2000/svg"><path d="M16.237 6.125h-.062C15.31 4.273 13.392 3 11.103 3c-3.03 0-5.505 2.315-5.505 5.151v.232C4.113 8.788 3 10.119 3 11.623c0 1.91 1.608 3.474 3.711 3.474h9.526c2.66 0 4.763-2.026 4.763-4.457s-2.103-4.515-4.763-4.515zM12.588 16.312H11.35V21h1.237v-4.688z" fill="#fff"/><path d="m13.872 17.007-4.34 2.343.62 1.003 4.339-2.344-.619-1.002z" fill="#fff"/><path d="m10.114 17.003-.619 1.002 4.34 2.345.618-1.003-4.34-2.344z" fill="#fff"/></svg>