<svg width="24" height="24" fill="none" xmlns="http://www.w3.org/2000/svg"><path d="M16.192 5.99h-.062C15.267 4.219 13.356 3 11.075 3 8.055 3 5.59 5.215 5.59 7.93v.22C4.109 8.54 3 9.813 3 11.253c0 1.828 1.603 3.324 3.699 3.324h9.554c2.651 0 4.747-1.939 4.747-4.265 0-2.326-2.157-4.32-4.808-4.32zM12.36 16.312h-1.2V21h1.2v-4.688z" fill="#fff"/><path d="M13.58 16.947 9.37 19.29l.6 1.003 4.21-2.344-.6-1.002z" fill="#fff"/><path d="m9.966 16.983-.6 1.003 4.208 2.344.6-1.002-4.208-2.345zM17.34 16.312h-.9v3.473h.9v-3.473z" fill="#fff"/><path d="m18.26 16.822-3.117 1.736.45.752 3.117-1.737-.45-.751z" fill="#fff"/><path d="m15.548 16.825-.45.752 3.118 1.736.45-.752-3.118-1.736zM7.08 16.312h-.9v3.473h.9v-3.473z" fill="#fff"/><path d="m7.945 16.84-3.117 1.736.45.752 3.117-1.736-.45-.752z" fill="#fff"/><path d="m5.275 16.802-.45.752 3.118 1.736.45-.752-3.118-1.736z" fill="#fff"/></svg>