<svg width="24" height="24" fill="none" xmlns="http://www.w3.org/2000/svg"><path d="M16.237 6.1h-.062C15.31 4.263 13.392 3 11.103 3c-3.03 0-5.505 2.297-5.505 5.11v.23C4.113 8.742 3 10.062 3 11.555 3 13.45 4.608 15 6.711 15h9.526C18.897 15 21 12.99 21 10.579 21 8.167 18.897 6.1 16.237 6.1zM10.237 16.312H9V21h1.237v-4.688z" fill="#fff"/><path d="m11.452 16.96-4.34 2.344.619 1.003 4.34-2.344-.619-1.002z" fill="#fff"/><path d="m7.776 16.952-.618 1.002 4.339 2.345.618-1.003-4.339-2.344zM15.371 16.37h-.928v3.473h.928V16.37z" fill="#fff"/><path d="m16.302 16.827-3.214 1.737.464.752 3.214-1.737-.464-.752z" fill="#fff"/><path d="m13.545 16.873-.464.752 3.214 1.736.464-.752-3.214-1.736z" fill="#fff"/></svg>