<svg width="24" height="24" viewBox="0 0 24 24" fill="none" xmlns="http://www.w3.org/2000/svg">
<path d="M10.8459 21C13.5068 21 15.6647 19.0541 15.6647 16.6352C15.6647 15.3996 15.1096 14.3137 14.0619 13.4361C13.8762 13.2843 13.8323 13.189 13.8323 12.9652L13.8417 5.97632C13.8417 4.18897 12.6344 3 10.8459 3C9.03965 3 7.81461 4.18897 7.81461 5.97632L7.83235 12.9652C7.83235 13.189 7.78852 13.2843 7.60278 13.4361C6.54574 14.3059 6 15.3986 6 16.6352C6 19.0541 8.15896 21 10.8459 21ZM10.8459 19.6116C9.01357 19.6116 7.54226 18.2708 7.54226 16.6197C7.54226 15.6068 8.07026 14.7292 8.99583 14.1619C9.26922 14.0024 9.37461 13.8506 9.37461 13.5324V6.03178C9.37461 5.03449 9.96522 4.39719 10.8459 4.39719C11.7005 4.39719 12.2911 5.03449 12.2911 6.03178V13.5324C12.2911 13.8516 12.3965 14.0024 12.6699 14.1619C13.5944 14.7292 14.1235 15.6068 14.1235 16.6197C14.1235 18.2708 12.6522 19.6116 10.8459 19.6116ZM15.5238 6.11935H17.4543C17.7882 6.11935 18 5.89557 18 5.63286C18 5.37016 17.7882 5.14638 17.4543 5.14638H15.5238C15.1899 5.14638 14.9687 5.37016 14.9687 5.63286C14.9687 5.89557 15.1889 6.11935 15.5238 6.11935ZM15.5238 8.32995H17.4543C17.7882 8.32995 18 8.10616 18 7.84346C18 7.57978 17.7882 7.35697 17.4543 7.35697H15.5238C15.1899 7.35697 14.9687 7.57978 14.9687 7.84346C14.9687 8.10616 15.1889 8.32995 15.5238 8.32995ZM15.5238 10.5561H17.4543C17.7882 10.5561 18 10.3323 18 10.0696C18 9.80595 17.7882 9.58314 17.4543 9.58314H15.5238C15.1899 9.58314 14.9687 9.80595 14.9687 10.0696C14.9687 10.3323 15.1889 10.5561 15.5238 10.5561ZM10.8282 18.5345C12 18.5345 12.9423 17.6812 12.9423 16.6119C12.9423 15.8773 12.4842 15.2634 11.8059 14.9364C11.5242 14.8002 11.4365 14.7049 11.4365 14.3215V10.2448C11.4365 9.83805 11.1715 9.58314 10.8282 9.58314C10.4943 9.58314 10.2292 9.83805 10.2292 10.2448V14.3215C10.2292 14.7049 10.1405 14.8002 9.85878 14.9364C9.18052 15.2634 8.72243 15.8773 8.72243 16.6119C8.72243 17.6812 9.6647 18.5345 10.8282 18.5345ZM15.5238 12.7745H17.4543C17.7882 12.7745 18 12.5507 18 12.288C18 12.0243 17.7882 11.8005 17.4543 11.8005H15.5238C15.1899 11.8005 14.9687 12.0243 14.9687 12.287C14.9687 12.5497 15.1889 12.7745 15.5238 12.7745Z" fill="white"/>
</svg>
