<svg width="24" height="24" viewBox="0 0 24 24" fill="none" xmlns="http://www.w3.org/2000/svg">
<path d="M12.8229 6.53814C12.6833 6.38537 12.5052 6.26867 12.3051 6.19896C12.105 6.12924 11.8896 6.1088 11.679 6.13954C11.4683 6.17027 11.2693 6.25118 11.1006 6.3747C10.9319 6.49821 10.799 6.6603 10.7143 6.84579L10.5659 7.16751C10.5372 7.2383 10.4936 7.30285 10.4379 7.35728C10.3822 7.4117 10.3154 7.45488 10.2416 7.48421C10.1678 7.51354 10.0886 7.52842 10.0086 7.52796C9.92858 7.52749 9.84951 7.5117 9.77612 7.48151C9.70272 7.45133 9.63652 7.40738 9.58149 7.35232C9.52646 7.29725 9.48375 7.2322 9.4559 7.16108C9.42806 7.08996 9.41566 7.01423 9.41946 6.93845C9.42326 6.86267 9.44318 6.7884 9.47802 6.7201L9.62538 6.39838C9.78985 6.0382 10.048 5.72347 10.3756 5.48363C10.7032 5.24379 11.0896 5.08668 11.4986 5.02699C11.9077 4.9673 12.326 5.00699 12.7145 5.14234C13.1029 5.27768 13.4489 5.50427 13.7199 5.8009L13.7416 5.82529C13.9078 6.00725 14.0433 6.21173 14.1442 6.43215L14.157 6.46029C14.3165 6.80988 14.3819 7.1916 14.3473 7.5711C14.3126 7.9506 14.1791 8.31598 13.9586 8.63438C13.7381 8.95278 13.4376 9.2142 13.0842 9.39514C12.7307 9.57607 12.3354 9.67084 11.9337 9.67092H3.59341C3.43603 9.67092 3.28509 9.61163 3.1738 9.50609C3.06252 9.40055 3 9.2574 3 9.10814C3 8.95889 3.06252 8.81574 3.1738 8.7102C3.28509 8.60466 3.43603 8.54537 3.59341 8.54537H11.9337C12.1386 8.54531 12.3403 8.49696 12.5206 8.40467C12.7008 8.31239 12.8541 8.17905 12.9666 8.01666C13.0791 7.85426 13.1473 7.6679 13.165 7.47433C13.1827 7.28076 13.1494 7.08604 13.0681 6.90769L13.0553 6.87955C13.0025 6.76433 12.9314 6.65743 12.8446 6.56252L12.8229 6.53814Z" fill="white"/>
<path d="M19.65 8.82684C19.4957 8.52095 19.242 8.27007 18.9262 8.11104C18.6104 7.95201 18.2491 7.89321 17.8955 7.94328L17.756 7.96204C17.4119 8.01074 17.089 8.14991 16.824 8.36377C16.559 8.57763 16.3625 8.85762 16.2567 9.17201L16.2498 9.19452C16.2019 9.33681 16.0964 9.45524 15.9565 9.52375C15.8165 9.59227 15.6536 9.60525 15.5036 9.55985C15.3535 9.51445 15.2287 9.41439 15.1564 9.28167C15.0842 9.14895 15.0705 8.99445 15.1184 8.85216L15.1263 8.83059C15.2994 8.31588 15.6212 7.85748 16.0551 7.50735C16.4889 7.15723 17.0175 6.92937 17.581 6.84962L17.7195 6.82992C18.126 6.77232 18.541 6.79857 18.9359 6.9069C19.3308 7.01522 19.6964 7.20306 20.0078 7.45761C20.3192 7.71216 20.5691 8.02742 20.7403 8.38188C20.9115 8.73634 21.0001 9.12166 21 9.51155V9.53031C21.0004 10.2509 20.7074 10.9438 20.1821 11.4644L20.1485 11.4963C19.8623 11.7797 19.5185 12.0053 19.138 12.1594C18.7574 12.3135 18.3479 12.393 17.9341 12.393H3.59341C3.51548 12.393 3.43832 12.3784 3.36632 12.3501C3.29432 12.3218 3.22891 12.2804 3.1738 12.2281C3.1187 12.1759 3.07499 12.1138 3.04517 12.0455C3.01535 11.9773 3 11.9041 3 11.8302C3 11.7563 3.01535 11.6831 3.04517 11.6148C3.07499 11.5465 3.1187 11.4845 3.1738 11.4322C3.22891 11.38 3.29432 11.3385 3.36632 11.3102C3.43832 11.282 3.51548 11.2674 3.59341 11.2674H17.9341C18.1878 11.2675 18.4389 11.2188 18.6723 11.1244C18.9057 11.0299 19.1165 10.8916 19.292 10.7178L19.3246 10.6859C19.6385 10.3748 19.8135 9.96083 19.8132 9.53031V9.51155C19.8134 9.27461 19.7577 9.04064 19.65 8.82684ZM3.59341 13.9969C3.43603 13.9969 3.28509 14.0562 3.17381 14.1617C3.06252 14.2672 3 14.4104 3 14.5596C3 14.7089 3.06252 14.852 3.17381 14.9576C3.28509 15.0631 3.43603 15.1224 3.59341 15.1224H12.5291C12.7833 15.1224 13.0321 15.1913 13.2464 15.3209C13.4607 15.4505 13.6315 15.6355 13.7387 15.854L13.7703 15.9187C13.8613 16.1035 13.9088 16.3052 13.9088 16.5097V16.6485C13.9086 16.8897 13.8335 17.1255 13.6928 17.3265C13.5521 17.5275 13.3522 17.6847 13.1179 17.7786C12.8835 17.8724 12.6253 17.8987 12.3753 17.8542C12.1253 17.8097 11.8947 17.6963 11.7122 17.5283L11.6825 17.5011C11.5726 17.3999 11.4813 17.282 11.4125 17.1522L11.0654 16.4975C10.9934 16.3663 10.8698 16.2673 10.7214 16.2219C10.5731 16.1765 10.4118 16.1882 10.2725 16.2546C10.1332 16.3211 10.0271 16.4368 9.97707 16.5769C9.92703 16.7169 9.93713 16.87 10.0052 17.003L10.3513 17.6577C10.4799 17.8997 10.65 18.1201 10.8557 18.3087L10.8854 18.3359C11.2353 18.6578 11.6774 18.8748 12.1566 18.9599C12.6358 19.045 13.1308 18.9943 13.5798 18.8142C14.0288 18.6341 14.4119 18.3326 14.6813 17.9472C14.9507 17.5619 15.0944 17.1099 15.0946 16.6475V16.5087C15.0946 16.141 15.0105 15.7771 14.8464 15.4432L14.8137 15.3775C14.6111 14.965 14.2884 14.6159 13.8837 14.3713C13.479 14.1267 13.009 13.9968 12.5291 13.9969H3.59341Z" fill="white"/>
</svg>
