<svg width="139" height="19" fill="none" xmlns="http://www.w3.org/2000/svg"><path d="M.424.84h4.968L7.6 11.544 9.904.84h4.368l2.496 10.8L19.096.84h4.56L19.648 18h-5.136l-2.64-10.896L9.208 18h-4.8L.424.84zm25.51 0h4.968V18h-4.968V.84zm8.552 0h5.544l5.496 9.672V.84h4.296V18H45.07L38.806 7.224V18h-4.32V.84zm24.916 13.368c1.456 0 2.52-.384 3.192-1.152.688-.768 1.032-1.96 1.032-3.576v-.192c0-1.648-.336-2.832-1.008-3.552-.672-.736-1.76-1.104-3.264-1.104h-1.08v9.576h1.128zM53.33.84h6.24c3.008 0 5.288.728 6.84 2.184 1.568 1.44 2.352 3.504 2.352 6.192v.192c0 2.72-.776 4.816-2.328 6.288C64.85 17.232 62.554 18 59.546 18H53.33V.84zm20.722 9.816L68.46.84h5.352l2.904 5.784L79.62.84h4.704l-5.328 9.816V18h-4.944v-7.344zm11.198 7.608c-.736 0-1.32-.24-1.752-.72-.464-.416-.696-.984-.696-1.704 0-.688.232-1.264.696-1.728.464-.464 1.048-.696 1.752-.696.688 0 1.288.232 1.8.696.48.48.72 1.056.72 1.728 0 .704-.24 1.272-.72 1.704-.48.48-1.08.72-1.8.72zM95.1.84h6.359L106.907 18h-5.208l-.912-3.192h-5.688L94.187 18h-4.584L95.1.84zm.96 10.584h3.767l-1.872-6.6-1.896 6.6zM109.064.84h6.528c2.32 0 4.048.496 5.184 1.488 1.136.976 1.704 2.392 1.704 4.248v.096c0 1.808-.576 3.184-1.728 4.128-1.136.944-2.784 1.416-4.944 1.416h-1.848V18h-4.896V.84zm6.312 8.016c1.616 0 2.424-.72 2.424-2.16V6.6c0-1.376-.8-2.064-2.4-2.064h-1.44v4.32h1.416zM124.908.84h6.528c2.32 0 4.048.496 5.184 1.488 1.136.976 1.704 2.392 1.704 4.248v.096c0 1.808-.576 3.184-1.728 4.128-1.136.944-2.784 1.416-4.944 1.416h-1.848V18h-4.896V.84zm6.312 8.016c1.616 0 2.424-.72 2.424-2.16V6.6c0-1.376-.8-2.064-2.4-2.064h-1.44v4.32h1.416z" fill="#fff"/></svg>